<?xml version="1.0"?>
<svg xmlns="http://www.w3.org/2000/svg" xmlns:xlink="http://www.w3.org/1999/xlink" xmlns:svgjs="http://svgjs.com/svgjs" version="1.1" width="512" height="512" x="0" y="0" viewBox="0 0 256 256" style="enable-background:new 0 0 512 512" xml:space="preserve" class=""><g><g xmlns="http://www.w3.org/2000/svg"><g><path d="m185.29 55.607-8.516-7.778-48.774 44.547-48.774-44.547-8.516 7.778 57.29 52.326z" fill="#16b146" data-original="#e8383b" style="" class=""/><path d="m64.516 61.264-8.516 7.778 60.387 55.154 11.613 10.607 11.613-10.607 60.387-55.154-8.516-7.778-63.484 57.983z" fill="#16b146" data-original="#ef7f72" style="" class=""/><path d="m128 119.247 63.484-57.983-6.194-5.657-57.29 52.326-57.29-52.326-6.194 5.657z" fill="#130f40" data-original="#e95947" style="" class=""/></g><g><path d="m128 137.803c-.725 0-1.45-.262-2.023-.785l-72-65.761c-.623-.568-.977-1.372-.977-2.215s.354-1.647.977-2.215l23.226-21.213c1.146-1.046 2.9-1.046 4.046 0l46.751 42.699 46.751-42.7c1.146-1.046 2.9-1.045 4.047 0l23.226 21.213c.622.568.977 1.373.977 2.215s-.354 1.647-.977 2.215l-72 65.761c-.574.525-1.299.786-2.024.786zm-67.552-68.761 67.552 61.698 67.552-61.698-18.777-17.15-46.751 42.7c-1.146 1.046-2.901 1.046-4.046 0l-46.751-42.7z" fill="#ffffff" data-original="#1c2d6b" style="" class=""/></g><g><path d="m185.29 128.975-8.516-7.778-48.774 44.547-48.774-44.547-8.516 7.778 57.29 52.325z" fill="#16b146" data-original="#e8383b" style="" class=""/><path d="m64.516 134.632-8.516 7.778 60.387 55.154 11.613 10.607 11.613-10.607 60.387-55.154-8.516-7.778-63.484 57.982z" fill="#16b146" data-original="#ef7f72" style="" class=""/><path d="m128 192.614 63.484-57.982-6.194-5.657-57.29 52.325-57.29-52.325-6.194 5.657z" fill="#130f40" data-original="#e95947" style="" class=""/></g><g><path d="m128 211.171c-.725 0-1.45-.262-2.023-.785l-72-65.761c-.623-.568-.977-1.373-.977-2.215s.354-1.647.977-2.215l23.226-21.213c1.146-1.046 2.9-1.046 4.046 0l46.751 42.7 46.751-42.7c1.146-1.046 2.9-1.046 4.047 0l23.226 21.213c.622.568.977 1.373.977 2.215s-.354 1.647-.977 2.215l-72 65.761c-.574.523-1.299.785-2.024.785zm-67.552-68.761 67.552 61.698 67.552-61.698-18.777-17.15-46.751 42.7c-1.146 1.046-2.901 1.046-4.046 0l-46.751-42.7z" fill="#ffffff" data-original="#1c2d6b" style="" class=""/></g></g></g></svg>
